<?xml version="1.0" encoding="UTF-8"?><svg xmlns="http://www.w3.org/2000/svg" xmlns:xlink="http://www.w3.org/1999/xlink" height="119.8" preserveAspectRatio="xMidYMid meet" version="1.0" viewBox="0.0 0.0 124.0 119.8" width="124.0" zoomAndPan="magnify"><g><g><g id="change1_1"><path d="M96.38,89.63v3.8c4.67,1.48,13.62,6.63,15.7,23.32H80.09c-0.69-3.63-1.73-6.64-2.97-9.13 C80.66,98.04,87,94.6,90.67,93.43v-3.8v-0.01c0.91,0.3,1.87,0.48,2.86,0.48c0.98,0,1.94-0.18,2.85-0.48V89.63z" fill="#b8d3cf"/></g><g id="change1_2"><path d="M105.21,75.88c-0.36,3.61-1.14,6.8-2.17,8.52c-1.09,1.82-3.6,4.22-6.66,5.22 c-0.91,0.3-1.87,0.48-2.85,0.48c-0.99,0-1.95-0.18-2.86-0.48c-3.05-1.01-5.56-3.4-6.66-5.22c-1.03-1.72-1.81-4.91-2.16-8.52 c0-5.24,0.16-18.13,11.68-18.13C105.04,57.75,105.21,70.64,105.21,75.88z" fill="#b8d3cf"/></g><g id="change1_3"><path d="M33.33,89.63v3.8c3.67,1.17,10.01,4.61,13.55,14.19c-1.24,2.49-2.28,5.5-2.97,9.13H11.92 c2.08-16.69,11.03-21.84,15.7-23.32v-3.8v-0.01c0.91,0.3,1.87,0.48,2.85,0.48c0.99,0,1.95-0.18,2.86-0.48V89.63z" fill="#b8d3cf"/></g><g id="change1_4"><path d="M42.15,75.88c-0.35,3.61-1.13,6.8-2.16,8.52c-1.1,1.82-3.61,4.21-6.66,5.22 c-0.91,0.3-1.87,0.48-2.86,0.48c-0.98,0-1.94-0.18-2.85-0.48c-3.06-1-5.57-3.4-6.66-5.22c-1.03-1.72-1.81-4.91-2.17-8.52 c0-5.24,0.17-18.13,11.68-18.13C41.99,57.75,42.15,70.64,42.15,75.88z" fill="#b8d3cf"/></g><g id="change2_1"><path d="M43.91,116.75c0.69-3.63,1.73-6.64,2.97-9.13c3.64-7.32,9-10.15,12.26-11.19l0.01-3.8 c0.91,0.3,1.87,0.48,2.85,0.48s1.94-0.18,2.85-0.48v3.8c3.27,1.04,8.63,3.87,12.27,11.19c1.24,2.49,2.28,5.5,2.97,9.13 c0.18,0.95,0.34,1.95,0.47,3H43.44C43.57,118.7,43.73,117.7,43.91,116.75z" fill="#d6eae8"/></g><g id="change2_2"><path d="M73.68,78.88c-0.35,3.61-1.14,6.8-2.16,8.52c-1.1,1.83-3.61,4.23-6.67,5.23 c-0.91,0.3-1.87,0.48-2.85,0.48s-1.94-0.18-2.85-0.48c-3.06-1-5.57-3.4-6.67-5.23c-1.02-1.72-1.81-4.91-2.16-8.52 c0-5.23,0.17-18.13,11.68-18.13S73.68,73.65,73.68,78.88z" fill="#d6eae8"/></g><g id="change3_1"><circle cx="87.64" cy="29.02" fill="#eaebec" r="2.47"/></g><g id="change3_2"><path d="M100.71,26.55c1.37,0,2.48,1.11,2.48,2.47c0,1.37-1.11,2.47-2.48,2.47c-1.36,0-2.47-1.1-2.47-2.47 C98.24,27.66,99.35,26.55,100.71,26.55z" fill="#eaebec"/></g><g id="change3_3"><circle cx="113.79" cy="29.02" fill="#eaebec" r="2.47"/></g><g id="change4_1"><path d="M40.08,23.26c1.36,0,2.47,1.11,2.47,2.48c0,1.36-1.11,2.47-2.47,2.47c-1.37,0-2.48-1.11-2.48-2.47 C37.6,24.37,38.71,23.26,40.08,23.26z" fill="#fcbd72"/></g><g id="change4_2"><path d="M27,23.26c1.37,0,2.47,1.11,2.47,2.48c0,1.36-1.1,2.47-2.47,2.47s-2.47-1.11-2.47-2.47 C24.53,24.37,25.63,23.26,27,23.26z" fill="#fcbd72"/></g><g id="change4_3"><path d="M13.92,23.26c1.37,0,2.48,1.11,2.48,2.48c0,1.36-1.11,2.47-2.48,2.47c-1.36,0-2.47-1.11-2.47-2.47 C11.45,24.37,12.56,23.26,13.92,23.26z" fill="#fcbd72"/></g><g id="change5_1"><path d="M54.91,44.49c-1.11,1.59-2.95,2.63-5.04,2.63H29.44l-0.53,4.93l-5.58-4.93H6.13 C2.74,47.12,0,44.38,0,40.99V10.5c0-3.39,2.74-6.13,6.13-6.13h43.74c0.3,0,0.59,0.02,0.87,0.07C53.72,4.85,56,7.41,56,10.5v30.49 C56,42.29,55.6,43.5,54.91,44.49z M42.55,25.74c0-1.37-1.11-2.48-2.47-2.48c-1.37,0-2.48,1.11-2.48,2.48 c0,1.36,1.11,2.47,2.48,2.47C41.44,28.21,42.55,27.1,42.55,25.74z M29.47,25.74c0-1.37-1.1-2.48-2.47-2.48s-2.47,1.11-2.47,2.48 c0,1.36,1.1,2.47,2.47,2.47S29.47,27.1,29.47,25.74z M16.4,25.74c0-1.37-1.11-2.48-2.48-2.48c-1.36,0-2.47,1.11-2.47,2.48 c0,1.36,1.11,2.47,2.47,2.47C15.29,28.21,16.4,27.1,16.4,25.74z" fill="#fbe2ae"/></g><g id="change6_1"><path d="M124,16.35v26.19c0,2.66-2.16,4.82-4.82,4.82h-14.06l-6.8,6.81v-6.81H81.61 c-1.86,0-3.48-1.06-4.28-2.61c-0.35-0.66-0.54-1.41-0.54-2.21V16.35c0-2.66,2.16-4.82,4.82-4.82h25.61h11.96 C121.84,11.53,124,13.69,124,16.35z M116.26,29.02c0-1.36-1.1-2.47-2.47-2.47s-2.47,1.11-2.47,2.47c0,1.37,1.1,2.47,2.47,2.47 S116.26,30.39,116.26,29.02z M103.19,29.02c0-1.36-1.11-2.47-2.48-2.47c-1.36,0-2.47,1.11-2.47,2.47c0,1.37,1.11,2.47,2.47,2.47 C102.08,31.49,103.19,30.39,103.19,29.02z M90.11,29.02c0-1.36-1.11-2.47-2.47-2.47c-1.37,0-2.47,1.11-2.47,2.47 c0,1.37,1.1,2.47,2.47,2.47C89,31.49,90.11,30.39,90.11,29.02z" fill="#f9b132"/></g><g id="change7_1"><path d="M107.22,6.21v5.32H81.61c-2.66,0-4.82,2.16-4.82,4.82v26.19c0,0.8,0.19,1.55,0.54,2.21h-4.78 l-9.27,10.72V44.75h-6.6c-0.61,0-1.21-0.09-1.77-0.26c0.69-0.99,1.09-2.2,1.09-3.5V10.5c0-3.09-2.28-5.65-5.26-6.06l0.01-0.07 C51.54,1.84,53.9,0,56.68,0h44.34C104.45,0,107.22,2.78,107.22,6.21z" fill="#8bcb8f"/></g></g></g></svg>