<?xml version="1.0" standalone="no"?><!DOCTYPE svg PUBLIC "-//W3C//DTD SVG 1.1//EN" "http://www.w3.org/Graphics/SVG/1.1/DTD/svg11.dtd"><svg t="1669087141991" class="icon" viewBox="0 0 1041 1024" version="1.1" xmlns="http://www.w3.org/2000/svg" p-id="909" xmlns:xlink="http://www.w3.org/1999/xlink" width="203.3203125" height="200"><path d="M651.900987 129.806052a368.827444 368.827444 0 1 0 108.768924 261.108413A367.462583 367.462583 0 0 0 651.900987 129.806052z" fill="#FFFFFF" p-id="910"></path><path d="M391.107542 781.159727a390.560231 390.560231 0 1 1 276.75182-115.48824 390.770209 390.770209 0 0 1-276.75182 115.48824v-41.995723a348.14455 348.14455 0 0 0 246.409909-594.44947 348.249539 348.249539 0 1 0-246.409909 594.44947z" fill="#282D33" p-id="911"></path><path d="M598.566417 597.008479a292.290237 292.290237 0 1 1-414.287814-412.398007A292.290237 292.290237 0 1 1 598.566417 597.008479z" fill="#1296db" p-id="912"></path><path d="M666.01155 775.227832l125.388732-125.388733L1010.177005 868.615822 884.788273 994.004554z" fill="#f4ea2a" p-id="913"></path><path d="M930.437624 869.770705l-96.800143-96.800144zM818.833988 787.753056l29.701476-29.690977 96.800143 96.800144-29.690976 29.701475zM680.269098 760.896791l96.789644-96.821141 47.444669 47.43417-96.789644 96.821141z" fill="#FFFFFF" p-id="914"></path><path d="M727.703268 838.063933l-77.062153-77.167142 126.512118-125.987171 77.062153 77.062153z m-17.743193-77.062153l17.743193 17.638204 67.088169-67.088169L777.153233 693.598644z" fill="#282D33" p-id="915"></path><path d="M1019.363569 906.201995a96.905133 96.905133 0 0 1-96.905132 96.800143l-23.202638-23.307627q48.505061-48.295082 96.800144-96.800143z" fill="#FFFFFF" p-id="916"></path><path d="M913.639335 1024l-44.200499-44.305489 125.987171-125.987171L1040.361431 897.487882v8.714113a118.112973 118.112973 0 0 1-118.007984 117.798005z m15.11846-44.305489l1.784819 1.784819A75.697292 75.697292 0 0 0 997.630782 914.076193l-1.784818-1.784818zM650.452134 714.208045l29.690977-29.701476 40.536372 40.525874-29.690977 29.711974zM674.368699 637.744331l29.690976-29.690977 52.484156 52.494655-29.701475 29.690977z" fill="#282D33" p-id="917"></path><path d="M391.842467 734.229506a342.160159 342.160159 0 1 1 342.16016-342.160159 342.580116 342.580116 0 0 1-342.16016 342.160159z m0-642.219605a300.164435 300.164435 0 1 0 300.164436 300.059446A300.479403 300.479403 0 0 0 391.842467 92.009901z" fill="#FFFFFF" p-id="918"></path><path d="M391.842467 734.229506c-115.48824 0-206.72395-150.239702-206.72395-342.160159S275.93427 50.014177 391.842467 50.014177 598.566417 200.14889 598.566417 392.069347s-90.815753 342.160159-206.72395 342.160159z m0-642.219605c-89.345902 0-164.728226 137.431006-164.728226 300.059446s75.382324 300.164435 164.728226 300.164435 164.728226-137.431006 164.728227-300.164435S481.08338 92.009901 391.842467 92.009901z" fill="#FFFFFF" p-id="919"></path><path d="M391.842467 734.229506h-20.997861V50.014177h20.997861a342.160159 342.160159 0 1 1 0 684.215329z m20.997862-641.48468v598.439063a300.059446 300.059446 0 0 0 0-598.439063z" fill="#FFFFFF" p-id="920"></path><path d="M706.600417 526.245684h-629.935856l-5.144476-13.54362a338.065576 338.065576 0 0 1 0-241.475412l5.144476-13.543621h629.935856l5.144476 13.543621a338.065576 338.065576 0 0 1 0 241.475412z m-600.118892-41.995723h570.721885a293.970066 293.970066 0 0 0 0-184.361228H106.481525a293.970066 293.970066 0 0 0 0 184.361228z" fill="#FFFFFF" p-id="921"></path></svg>